<svg xmlns="http://www.w3.org/2000/svg" xmlns:xlink="http://www.w3.org/1999/xlink" version="1.1" x="0px" y="0px" viewBox="0 0 100 125" enable-background="new 0 0 100 100" xml:space="preserve"><path d="M76.987,46.561V33.913c0.433,0.047,0.924,0.084,1.497,0.102l0.168,0.003c4.349,0,6.947-5.089,6.947-10.01  c0-5.036-1.887-10.118-6.1-10.118c-2.447,0-4.709,0.751-6.527,1.354c-1.044,0.347-1.945,0.646-2.473,0.646  c-0.542,0-2.546-0.128-5.083-0.29C60.721,15.3,54.29,14.889,51,14.889c-3.744,0-11.811,0.49-16.629,0.782  c-2.003,0.122-3.584,0.218-3.871,0.218c-0.678,0-5.182-1.215-7.928-1.995c-0.416-0.061-0.82-0.091-1.204-0.091  C15,13.803,15,21.771,15,24.389c0,3.383,2.215,9.493,6.629,9.625c0.198,0.006,0.387,0.01,0.566,0.01  c0.367,0,0.693-0.014,0.997-0.035v12.572c0,2.875,1.155,4.328,3.642,4.65v3.592c-0.402-0.451-0.956-0.734-1.64-0.785  c-1.81,0-4.812,6.572-4.812,13.568c0,7.889,2.841,12.924,4.797,12.926c0.011,0,0.064-0.002,0.076-0.004  c0.48-0.033,1.137-0.205,1.625-0.758C27.102,83.826,29.43,86,33.705,86h32.77c4.27,0,6.6-2.166,6.827-6.232  c0.478,0.482,1.09,0.637,1.544,0.668c0.011,0,0.064,0.002,0.076,0.002c1.955,0,4.796-5.035,4.796-12.926  c0-6.994-3-13.564-4.874-13.564c0,0-0.001,0-0.002,0c-0.605,0.045-1.111,0.297-1.496,0.691v-3.445  C75.717,50.826,76.987,49.264,76.987,46.561z M26.539,77.633c0,1.6-0.771,1.838-1.352,1.877l-0.008,0.502v-0.5  c-0.779,0-3.797-3.699-3.797-11.926c0-7.375,3.033-12.412,3.802-12.568c1.222,0.092,1.354,1.346,1.354,1.879V77.633z M73.562,56.824  c0-0.535,0.132-1.789,1.332-1.881c0.791,0.156,3.823,5.193,3.823,12.568c0,8.229-3.018,11.926-3.796,11.926v0.5l-0.008-0.5  c-0.58-0.041-1.352-0.277-1.352-1.879V56.824z M69,16.823c0.722,0.041,1.248,0.066,1.5,0.066c0.688,0,1.615-0.308,2.788-0.697  c1.749-0.581,3.926-1.303,6.212-1.303c3.523,0,5.1,4.58,5.1,9.118c0,4.333-2.273,9.01-5.947,9.01l-0.137-0.002  c-2.219-0.069-3.159-0.417-3.916-0.696c-0.596-0.221-1.16-0.43-2.1-0.43c-1.168,0-2.335,0.029-3.5,0.07V16.823z M66,16.638  c0.736,0.047,1.413,0.09,2,0.126V32c-0.668,0.027-1.335,0.057-2,0.094V16.638z M35,16.635c4.852-0.294,12.427-0.746,16-0.746  c3.178,0,9.354,0.389,14,0.686v15.577c-1.324,0.079-2.642,0.164-3.939,0.253c-3.674,0.249-7.143,0.484-10.561,0.484  c-4.809,0-9.688-0.334-15.336-0.72c-0.055-0.004-0.11-0.007-0.164-0.011V16.635z M32,16.815c0.544-0.032,1.217-0.072,2-0.12V32.09  c-0.654-0.045-1.322-0.089-2-0.134V16.815z M21.659,33.014C17.943,32.903,16,27.339,16,24.389c0-2.371,0-9.586,5.368-9.586  c0.335,0,0.692,0.027,0.995,0.067c0.723,0.207,7.097,2.02,8.137,2.02c0.086,0,0.259-0.007,0.5-0.019v15.021  c-0.008-0.001-0.015-0.002-0.021-0.002h-0.223c-2.784,0-4.088,0.35-5.239,0.658C24.458,32.831,23.547,33.075,21.659,33.014z   M72.346,79.129c0,3.951-1.92,5.871-5.871,5.871h-32.77c-3.951,0-5.871-1.92-5.871-5.871v-27.82h11.743v5.602  c0,0.959,1.128,1.682,2.624,1.682s2.623-0.723,2.623-1.682v-5.602h10.531v5.602c0,0.959,1.127,1.682,2.623,1.682  s2.624-0.723,2.624-1.682v-5.602h11.743V79.129z M43.824,50.309h-3.247v-4.689c0-0.271,0.647-0.682,1.624-0.682  c0.976,0,1.623,0.41,1.623,0.682V50.309z M43.824,51.309v5.602c0,0.271-0.647,0.682-1.623,0.682c-0.977,0-1.624-0.41-1.624-0.682  v-5.602H43.824z M59.603,50.309h-3.247v-4.689c0-0.271,0.647-0.682,1.623-0.682c0.977,0,1.624,0.41,1.624,0.682V50.309z   M59.603,51.309v5.602c0,0.271-0.647,0.682-1.624,0.682c-0.976,0-1.623-0.41-1.623-0.682v-5.602H59.603z M72.239,50.309H60.603  v-4.689c0-0.959-1.128-1.682-2.624-1.682s-2.623,0.723-2.623,1.682v4.689H44.824v-4.689c0-0.959-1.127-1.682-2.623-1.682  s-2.624,0.723-2.624,1.682v4.689H27.94c-2.732,0-3.748-1.016-3.748-3.748V33.875c0.586-0.096,1.079-0.227,1.583-0.362  c1.145-0.307,2.328-0.623,4.98-0.623l0.187-0.001c1.421,0.093,2.804,0.187,4.153,0.278c5.668,0.389,10.562,0.723,15.404,0.723  c3.452,0,6.938-0.236,10.628-0.487c3.712-0.252,7.55-0.513,11.372-0.513c0.761,0,1.178,0.154,1.754,0.367  c0.451,0.166,0.972,0.354,1.733,0.504v12.8C75.987,49.119,74.797,50.309,72.239,50.309z M67.861,63.035v-0.482H31.5v2h0.021v13.732  h0.012c0.061,1.885,1.107,2.953,2.967,3.045v0.018h30.154c2.082,0,3.229-1.148,3.23-3.23l0,0V63.035H67.861z M64.654,80.348H34.752  c-1.543,0-2.23-0.689-2.23-2.232v-5.662c0.471,0.396,1.104,0.625,1.886,0.678v0.025h0.331c0.004,0,0.008,0,0.014,0l0,0h12.982v3.174  c0,0.785,0.932,1.377,2.169,1.377c1.236,0,2.169-0.592,2.169-1.377v-3.174h12.582l0,0c0.004,0,0.008,0,0.014,0h0.312v-0.023  c0.79-0.051,1.43-0.281,1.904-0.68v5.662C66.885,79.658,66.197,80.348,64.654,80.348z M48.733,69.898  c0.032-0.115,0.468-0.385,1.17-0.385s1.138,0.27,1.169,0.379v2.264h-2.339V69.898z M51.072,73.156v3.168  c-0.031,0.113-0.468,0.383-1.169,0.383s-1.138-0.27-1.169-0.377l-0.001-3.174H51.072z M64.67,72.156H52.072v-2.264  c0-0.785-0.933-1.379-2.169-1.379c-1.237,0-2.169,0.594-2.169,1.379v2.264H34.735c-1.53-0.006-2.214-0.693-2.214-2.232v-5.371  h34.363v5.371C66.885,71.463,66.201,72.15,64.67,72.156z M73.346,47.389h-1v-10h1V47.389L73.346,47.389z M28.346,47.389h-1v-10h1  V47.389L28.346,47.389z"/><text x="0" y="115" fill="#000000" font-size="5px" font-weight="bold" font-family="'Helvetica Neue', Helvetica, Arial-Unicode, Arial, Sans-serif">Created by Nikol Kokešová</text><text x="0" y="120" fill="#000000" font-size="5px" font-weight="bold" font-family="'Helvetica Neue', Helvetica, Arial-Unicode, Arial, Sans-serif">from the Noun Project</text></svg>