<svg xmlns="http://www.w3.org/2000/svg" xmlns:xlink="http://www.w3.org/1999/xlink" version="1.1" x="0px" y="0px" viewBox="0 0 100 125" style="enable-background:new 0 0 100 100;" xml:space="preserve"><path d="M11.125,90h78c0.553,0,1-0.447,1-1V33.643c0-0.553-0.447-1-1-1H58.542v-4.175h5.998c0.553,0,1-0.447,1-1V11  c0-0.553-0.447-1-1-1H35.71c-0.553,0-1,0.447-1,1v16.468c0,0.553,0.447,1,1,1h5.998v4.175H22.083v-4.203h5.167c0.553,0,1-0.447,1-1  v-8.167c0-0.553-0.447-1-1-1H14.917c-0.553,0-1,0.447-1,1v8.167c0,0.553,0.447,1,1,1h5.166v4.203h-8.958c-0.553,0-1,0.447-1,1V89  C10.125,89.553,10.572,90,11.125,90z M15.917,20.272H26.25v6.167H15.917V20.272z M88.125,76H66.464  c3.168-3.737,5.09-8.562,5.09-13.833c0-5.134-1.819-9.849-4.841-13.544h21.412V76z M69.554,62.167  c0,10.714-8.716,19.43-19.429,19.43s-19.429-8.716-19.429-19.43c0-10.713,8.716-19.429,19.429-19.429S69.554,51.454,69.554,62.167z   M28.696,62.167c0,5.271,1.922,10.096,5.09,13.833H12.125V48.623h21.412C30.515,52.318,28.696,57.033,28.696,62.167z M12.125,88V78  H35.71c0.007,0,0.014-0.004,0.021-0.004c3.809,3.467,8.851,5.601,14.394,5.601s10.585-2.134,14.394-5.601  c0.007,0,0.014,0.004,0.021,0.004h23.585v10H12.125z M36.71,12h26.83v14.468H36.71V12z M43.708,28.468h12.834v4.175H43.708V28.468z   M88.125,34.643v11.98H64.831c-3.842-3.637-9.011-5.885-14.706-5.885s-10.865,2.248-14.706,5.885H12.125v-11.98H88.125z"/><path d="M58.46,14.96l-7.213,7.212c-0.391,0.391-0.391,1.023,0,1.414c0.195,0.195,0.451,0.293,0.707,0.293s0.512-0.098,0.707-0.293  l7.213-7.212c0.391-0.391,0.391-1.023,0-1.414S58.851,14.569,58.46,14.96z"/><path d="M53.624,14.96c-0.391-0.391-1.023-0.391-1.414,0l-7.213,7.212c-0.391,0.391-0.391,1.023,0,1.414  c0.195,0.195,0.451,0.293,0.707,0.293s0.512-0.098,0.707-0.293l7.213-7.212C54.015,15.983,54.015,15.351,53.624,14.96z"/><path d="M81.028,44.811c2.234,0,4.053-1.818,4.053-4.053s-1.818-4.053-4.053-4.053c-2.235,0-4.054,1.818-4.054,4.053  S78.793,44.811,81.028,44.811z M81.028,38.705c1.132,0,2.053,0.921,2.053,2.053s-0.921,2.053-2.053,2.053  c-1.133,0-2.054-0.921-2.054-2.053S79.896,38.705,81.028,38.705z"/><path d="M33.805,62.167c0,8.999,7.321,16.32,16.32,16.32s16.32-7.321,16.32-16.32c0-8.998-7.321-16.319-16.32-16.319  S33.805,53.169,33.805,62.167z M64.445,62.167c0,7.896-6.424,14.32-14.32,14.32s-14.32-6.424-14.32-14.32  c0-7.896,6.424-14.319,14.32-14.319S64.445,54.271,64.445,62.167z"/></svg>