<svg xmlns="http://www.w3.org/2000/svg" xmlns:xlink="http://www.w3.org/1999/xlink" version="1.1" x="0px" y="0px" viewBox="0 0 100 125" style="enable-background:new 0 0 100 100;" xml:space="preserve"><path d="M56.95,17.415H23.252c-0.552,0-1,0.447-1,1v5.159c0,0.553,0.448,1,1,1h1.402v5.723c0,5.381,2.948,8.127,6.091,10.396v44.885  c0,2.438,1.994,4.423,4.444,4.423h9.611c2.451,0,4.444-1.984,4.444-4.423V40.859c3.903-2.729,6.302-5.518,6.302-10.562v-5.723h1.402  c0.552,0,1-0.447,1-1v-5.159C57.95,17.862,57.502,17.415,56.95,17.415z M47.245,41.178v37.58h-14.5v-37.58H47.245z M44.801,88H35.19  c-1.348,0-2.444-1.087-2.444-2.423v-4.819h14.5v4.819C47.245,86.913,46.148,88,44.801,88z M48.145,39.178h-16.07  c-3.507-2.518-5.417-4.728-5.42-8.871h26.892C53.544,34.502,51.638,36.729,48.145,39.178z M53.547,28.307H26.654v-3.732h26.893  V28.307z M55.95,22.574H24.252v-3.159H55.95V22.574z"/><path d="M39.427,74.32c0.218,0.045,0.443,0.068,0.674,0.068c0.231,0,0.456-0.023,0.674-0.068c1.57-0.314,2.756-1.702,2.756-3.362  v-7.181c0-1.892-1.539-3.431-3.43-3.431s-3.431,1.539-3.431,3.431v7.181C36.67,72.619,37.857,74.006,39.427,74.32z M40.101,72.389  c-0.744,0-1.349-0.605-1.349-1.349s0.605-1.349,1.349-1.349c0.743,0,1.348,0.605,1.348,1.349S40.844,72.389,40.101,72.389z   M40.101,62.347c0.789,0,1.43,0.642,1.43,1.431v4.247c-0.435-0.208-0.917-0.333-1.43-0.333c-0.514,0-0.995,0.126-1.431,0.333v-4.247  C38.67,62.988,39.312,62.347,40.101,62.347z"/><path d="M73.848,10c-7.57,0-13.729,6.158-13.729,13.729v29.624c-1.816,0.178-3.244,1.695-3.244,3.557  c0,1.922,1.52,3.482,3.419,3.573v22.334c0,3.961,3.223,7.184,7.184,7.184s7.184-3.223,7.184-7.184V60.449  c1.74-0.248,3.085-1.732,3.085-3.54c0-1.744-1.25-3.198-2.9-3.522V11C74.848,10.447,74.4,10,73.848,10z M72.848,12.042v41.275  H62.119V23.729C62.119,17.598,66.846,12.551,72.848,12.042z M62.294,81.781v-3.719h10.368v3.719H62.294z M62.294,72.344h10.368  v3.719H62.294V72.344z M72.662,70.344H62.294v-3.719h10.368V70.344z M72.662,64.625H62.294V60.5h10.368V64.625z M67.478,88  c-2.528,0-4.632-1.821-5.086-4.219h10.173C72.11,86.179,70.006,88,67.478,88z M75.748,56.909c0,0.877-0.714,1.591-1.591,1.591  h-13.69c-0.877,0-1.591-0.714-1.591-1.591c0-0.878,0.714-1.592,1.591-1.592h13.69C75.034,55.317,75.748,56.031,75.748,56.909z"/><path d="M69.317,47.764c0.552,0,1-0.447,1-1V19.336c0-0.553-0.448-1-1-1s-1,0.447-1,1v27.428  C68.317,47.316,68.765,47.764,69.317,47.764z"/><text x="0" y="115" fill="#000000" font-size="5px" font-weight="bold" font-family="'Helvetica Neue', Helvetica, Arial-Unicode, Arial, Sans-serif">Created by Made</text><text x="0" y="120" fill="#000000" font-size="5px" font-weight="bold" font-family="'Helvetica Neue', Helvetica, Arial-Unicode, Arial, Sans-serif">from the Noun Project</text></svg>