<svg xmlns="http://www.w3.org/2000/svg" xmlns:xlink="http://www.w3.org/1999/xlink" version="1.1" x="0px" y="0px" viewBox="0 0 100 125" style="enable-background:new 0 0 100 100;" xml:space="preserve"><path d="M67.149,48.037c0.637,0.07,1.269,0.104,1.896,0.104c8.612,0,16.053-6.5,17.021-15.255c0.503-4.55-0.796-9.023-3.658-12.596  c-2.862-3.573-6.943-5.818-11.493-6.321c-4.55-0.505-9.023,0.796-12.596,3.658c-3.573,2.861-5.817,6.943-6.321,11.493  C50.961,38.512,57.757,46.999,67.149,48.037z M53.987,29.34c0.444-4.019,2.427-7.625,5.583-10.152  c2.711-2.172,6.009-3.324,9.433-3.324c0.562,0,1.126,0.031,1.693,0.094c8.296,0.917,14.3,8.413,13.382,16.709  c-0.917,8.296-8.421,14.301-16.709,13.382C59.073,45.132,53.07,37.636,53.987,29.34z"/><path d="M77.81,31.875c-0.061,0.549,0.335,1.043,0.884,1.104l2.993,0.331c0.037,0.004,0.074,0.006,0.111,0.006  c0.503,0,0.936-0.378,0.993-0.89c0.061-0.549-0.335-1.043-0.884-1.104l-2.993-0.331C78.377,30.939,77.871,31.326,77.81,31.875z"/><path d="M59.285,30.827c0.503,0,0.936-0.378,0.993-0.89c0.061-0.549-0.335-1.043-0.884-1.104l-2.992-0.331  c-0.534-0.056-1.043,0.335-1.104,0.884c-0.061,0.549,0.335,1.043,0.884,1.104l2.992,0.331C59.21,30.825,59.248,30.827,59.285,30.827  z"/><path d="M70.332,22.153c0.037,0.004,0.074,0.006,0.111,0.006c0.503,0,0.936-0.378,0.993-0.89l0.331-2.993  c0.061-0.549-0.335-1.043-0.884-1.104c-0.534-0.053-1.043,0.335-1.104,0.884l-0.331,2.993  C69.387,21.598,69.783,22.092,70.332,22.153z"/><path d="M68.393,39.685c-0.539-0.055-1.043,0.335-1.104,0.884l-0.331,2.992c-0.061,0.549,0.335,1.043,0.884,1.104  c0.037,0.004,0.074,0.006,0.111,0.006c0.503,0,0.936-0.378,0.993-0.89l0.331-2.992C69.338,40.24,68.942,39.746,68.393,39.685z"/><path d="M58.945,39.327c0.198,0.234,0.48,0.355,0.765,0.355c0.228,0,0.457-0.077,0.644-0.235l16.904-14.246l0.03,1.908  c0.009,0.552,0.492,1.002,1.016,0.984c0.552-0.009,0.993-0.463,0.984-1.016l-0.062-4.016c-0.006-0.386-0.234-0.734-0.585-0.895  c-0.192-0.087-0.4-0.104-0.599-0.066l-3.896-0.294c-0.551-0.04-1.031,0.371-1.072,0.922s0.371,1.031,0.922,1.072l1.671,0.126  l-16.6,13.99C58.643,38.274,58.589,38.905,58.945,39.327z"/><path d="M52.72,89.615C52.917,89.868,53.212,90,53.509,90c0.215,0,0.432-0.069,0.615-0.211l29.201-22.775  c0.209-0.163,0.345-0.403,0.377-0.666c0.032-0.263-0.041-0.528-0.204-0.738L72.633,51.68c8.964-1.565,16.22-8.88,17.27-18.369  c1.272-11.507-7.055-21.905-18.562-23.178c-9.295-1.021-17.866,4.219-21.487,12.339l-9.428-12.087  c-0.341-0.435-0.968-0.513-1.404-0.173L9.821,32.986c-0.209,0.163-0.345,0.403-0.377,0.666c-0.032,0.263,0.041,0.528,0.204,0.738  L52.72,89.615z M73.112,55.546c-0.926,0.742-1.871,1.427-2.821,2.019c-0.468,0.292-0.611,0.909-0.319,1.378  c0.19,0.304,0.516,0.471,0.85,0.471c0.181,0,0.364-0.049,0.528-0.151c1.009-0.629,2.011-1.356,2.992-2.14l6.965,8.93L53.682,87.597  l-8.295-10.635c1.148-2.179,4.561-9.882,1.222-19.293c-3.056-8.612,3.102-14.041,4.775-15.319c3.309,5.136,8.81,8.802,15.341,9.524  c0.78,0.086,1.555,0.128,2.323,0.128c0.422,0,0.837-0.034,1.253-0.059L73.112,55.546z M57.158,16.175  c3.96-3.172,8.919-4.609,13.963-4.054c10.412,1.151,17.945,10.558,16.794,20.97c-1.151,10.411-10.556,17.947-20.97,16.794  C56.534,48.734,49,39.327,50.151,28.916C50.708,23.872,53.197,19.348,57.158,16.175z M39.463,12.403l9.558,12.255  c-0.409,1.292-0.704,2.64-0.859,4.037c-0.471,4.26,0.38,8.365,2.215,11.915c-1.407,1.063-7.366,6.077-6.507,14.026  c-0.929-0.431-1.752-0.793-2.523-1.109c-0.51-0.209-1.095,0.036-1.304,0.547c-0.209,0.511,0.036,1.095,0.547,1.304  c1.045,0.427,2.188,0.941,3.595,1.617c0.045,0.021,0.092,0.017,0.138,0.031c0.116,0.43,0.244,0.865,0.402,1.31  c2.706,7.627,0.501,14.159-0.714,16.859l-15.63-20.04c0.443-0.324,0.901-0.615,1.382-0.833c0.503-0.229,0.725-0.821,0.497-1.324  c-0.228-0.502-0.82-0.724-1.324-0.497c-0.624,0.283-1.214,0.66-1.783,1.08L11.839,33.948L39.463,12.403z"/><path d="M30.814,34.5c0.234,0.836,0.997,1.385,1.825,1.385c0.168,0,0.339-0.022,0.508-0.07c1.006-0.28,1.596-1.326,1.316-2.333  c-0.136-0.487-0.454-0.892-0.895-1.141c-0.44-0.248-0.953-0.309-1.439-0.174C31.125,32.448,30.535,33.494,30.814,34.5  C30.814,34.5,30.814,34.5,30.814,34.5z M32.668,34.093c-0.047,0.016-0.117-0.025-0.131-0.073l0.204-0.057  C32.757,34.02,32.724,34.078,32.668,34.093z M32.537,34.019c-0.016-0.056,0.018-0.115,0.074-0.13  c0.01-0.002,0.019-0.004,0.028-0.004c0.046,0,0.089,0.031,0.103,0.078L32.537,34.019L32.537,34.019z"/><path d="M39.85,44.528c0.083,0.021,0.168,0.032,0.252,0.032c0.22,0,0.438-0.073,0.615-0.211c0.245-0.191,0.388-0.486,0.385-0.797  c-0.01-1.156-0.168-11.388-2.571-14.469c-2.599-3.332-7.425-3.929-10.758-1.33c-1.614,1.259-2.642,3.071-2.893,5.104  c-0.251,2.032,0.304,4.04,1.563,5.654C28.846,41.591,38.731,44.236,39.85,44.528z M26.865,33.101  c0.186-1.501,0.945-2.841,2.138-3.771c1.005-0.784,2.217-1.199,3.472-1.199c0.234,0,0.471,0.015,0.707,0.044  c1.501,0.186,2.841,0.945,3.771,2.138c1.474,1.89,1.993,8.358,2.118,11.925c-3.43-0.989-9.577-3.068-11.051-4.958  C27.089,36.087,26.679,34.603,26.865,33.101z"/><path d="M37.438,52.192c-1.51-0.395-2.869-0.586-4.197-0.586c-0.002,0-0.004,0-0.005,0l0.045,2c0.001,0,0.003,0,0.004,0  c1.111,0,2.305,0.17,3.647,0.521c0.085,0.022,0.17,0.033,0.253,0.033c0.444,0,0.85-0.298,0.967-0.748  C38.292,52.877,37.972,52.331,37.438,52.192z"/><path d="M66.889,59.337c-1.21,0.506-2.429,0.882-3.623,1.117c-0.542,0.106-0.895,0.632-0.789,1.174  c0.094,0.477,0.512,0.807,0.98,0.807c0.064,0,0.128-0.006,0.194-0.019c1.326-0.261,2.675-0.676,4.01-1.235  c0.509-0.213,0.75-0.799,0.536-1.309C67.983,59.363,67.396,59.124,66.889,59.337z"/><path d="M52.232,58.655c-1.229-0.544-2.499-1.161-3.58-1.693c-0.496-0.245-1.095-0.04-1.339,0.455  c-0.244,0.496-0.041,1.095,0.455,1.339c1.099,0.542,2.392,1.17,3.654,1.729c0.132,0.058,0.269,0.086,0.404,0.086  c0.384,0,0.75-0.222,0.915-0.596C52.966,59.469,52.737,58.878,52.232,58.655z"/><path d="M59.528,60.741c-0.155-0.007-0.31-0.017-0.465-0.029c-0.964-0.075-2.013-0.291-3.206-0.662  c-0.526-0.164-1.087,0.131-1.251,0.659c-0.164,0.527,0.131,1.087,0.659,1.251c1.337,0.415,2.529,0.659,3.644,0.746  c0.175,0.014,0.35,0.024,0.524,0.033c0.016,0,0.032,0.001,0.048,0.001c0.53,0,0.973-0.417,0.998-0.953  C60.505,61.235,60.08,60.767,59.528,60.741z"/></svg>