<svg xmlns="http://www.w3.org/2000/svg" xmlns:xlink="http://www.w3.org/1999/xlink" version="1.1" x="0px" y="0px" viewBox="0 0 100 125" style="enable-background:new 0 0 100 100;" xml:space="preserve"><style type="text/css">
	.st0{fill:none;stroke:#000000;stroke-width:2;stroke-linecap:round;stroke-linejoin:round;stroke-miterlimit:10;}
	.st1{fill:none;stroke:#000000;stroke-width:2;stroke-linecap:round;stroke-linejoin:round;}
	.st2{fill:none;stroke:#000000;stroke-width:2;stroke-linecap:round;stroke-linejoin:round;stroke-dasharray:2.9177,3.8902;}
	.st3{fill:none;stroke:#000000;stroke-width:2;stroke-linecap:round;stroke-linejoin:round;stroke-dasharray:2.9655,3.954;}
	.st4{fill:none;stroke:#000000;stroke-width:2;stroke-linecap:round;stroke-linejoin:round;stroke-dasharray:2.7633,3.6844;}
</style><path d="M10.6,75.8c0-0.6,0.4-1,1-1h36c0.6,0,1,0.4,1,1s-0.4,1-1,1h-36C11.1,76.8,10.6,76.3,10.6,75.8z"/><path d="M50.7,85.1c0,0.6-0.4,1-1,1H34.2c-0.6,0-1-0.4-1-1s0.4-1,1-1h15.4C50.2,84.1,50.7,84.5,50.7,85.1z"/><path d="M14.2,80.4c0-0.6,0.4-1,1-1h15.4c0.6,0,1,0.4,1,1s-0.4,1-1,1H15.2C14.7,81.4,14.2,81,14.2,80.4z"/><path d="M28.4,84.1c0.6,0,1,0.4,1,1s-0.4,1-1,1h-4c-0.6,0-1-0.4-1-1s0.4-1,1-1H28.4z"/><path d="M89.9,82.6c0.1-0.3,0.1-0.5-0.1-0.8c-0.1-0.2-0.3-0.4-0.6-0.5L84,79.6l4.8-1.4c0.5-0.2,0.8-0.7,0.7-1.2L88,71.8  c-0.2-0.5-0.7-0.8-1.2-0.7l-14.9,4.3l-14.2-4.8c-0.3-0.1-0.5-0.1-0.8,0.1c-0.2,0.1-0.4,0.3-0.5,0.6l-1.7,5c-0.2,0.5,0.1,1.1,0.6,1.3  l4.8,1.6l-4.7,1.4c-0.3,0.1-0.5,0.2-0.6,0.5s-0.2,0.5-0.1,0.8l1.5,5.1c0.1,0.4,0.5,0.7,1,0.7c0.1,0,0.2,0,0.3,0l14.7-4.3l14.7,5  c0.1,0,0.2,0.1,0.3,0.1c0.4,0,0.8-0.3,0.9-0.7L89.9,82.6z M57,82.2l6.4-1.9l5.5,1.9l-11,3.2L57,82.2z M87.3,76.5l-6.6,1.9l-5.5-1.9  l11.1-3.2L87.3,76.5z M87.7,82.9l-1.1,3.1L56.9,76l1.1-3.1L87.7,82.9z"/><path d="M10.7,67.5c0,0.1,0,0.2,0,0.3c0,0,0,0,0,0c0,0,0,0,0,0c0,0.1,0.1,0.2,0.1,0.3c0,0,0,0,0,0c0,0,0,0,0.1,0.1  c0,0.1,0.1,0.1,0.1,0.2c0,0,0.1,0,0.1,0.1c0.1,0,0.1,0.1,0.2,0.1c0,0,0.1,0,0.1,0c0.1,0,0.2,0,0.3,0c0,0,0,0,0,0c0,0,0,0,0,0h0h52.1  c1.5,2.8,4.5,4.8,7.9,4.9c0,0,0.1,0,0.1,0c0,0,0,0,0,0c0,0,0.1,0,0.1,0c5.1,0,9.2-4.1,9.2-9.2c0-2.5-2-6.2-4.1-9.3  c0-0.1,0.1-0.2,0.1-0.3V34l10.9,9.8c0.4,0.4,1,0.3,1.4-0.1c0.4-0.4,0.3-1-0.1-1.4L77.1,31.3V27l10.9,9.8c0.4,0.4,1,0.3,1.4-0.1  c0.4-0.4,0.3-1-0.1-1.4L77.1,24.3v-4.5l10.9,9.9c0.4,0.4,1,0.3,1.4-0.1c0.4-0.4,0.3-1-0.1-1.4L77.1,17v-4.5l10.9,9.8  c0.4,0.4,1,0.3,1.4-0.1c0.4-0.4,0.3-1-0.1-1.4L76.7,9.5c-0.4-0.3-1-0.3-1.3,0L62.8,20.9c-0.4,0.4-0.4,1-0.1,1.4  c0.2,0.2,0.5,0.3,0.7,0.3c0.2,0,0.5-0.1,0.7-0.3l10.9-9.8V17L62.8,28.1c-0.4,0.4-0.4,1-0.1,1.4c0.2,0.2,0.5,0.3,0.7,0.3  c0.2,0,0.5-0.1,0.7-0.3l10.9-9.9v4.5L62.8,35.3c-0.4,0.4-0.4,1-0.1,1.4c0.2,0.2,0.5,0.3,0.7,0.3c0.2,0,0.5-0.1,0.7-0.3L75.1,27v4.4  L62.8,42.4c-0.4,0.4-0.4,1-0.1,1.4c0.2,0.2,0.5,0.3,0.7,0.3c0.2,0,0.5-0.1,0.7-0.3L75.1,34v18.2c-1.2-1.6-2.1-2.7-2.4-3  c-0.4-0.5-1.2-0.5-1.5,0c-0.4,0.5-2.4,3-4.4,5.9L43,11.9c0-0.1-0.1-0.1-0.1-0.2c-0.2-0.2-0.4-0.3-0.7-0.3s-0.6,0.1-0.7,0.3  c-0.1,0.1-0.1,0.1-0.1,0.2L10.8,67.1C10.7,67.2,10.7,67.3,10.7,67.5C10.7,67.4,10.7,67.4,10.7,67.5z M13.7,65.9l27.4-49.6  C40.9,23.5,38.7,57.5,13.7,65.9z M41.1,32.3v34.3H17.5C32.2,60,38.4,44.6,41.1,32.3z M65.6,57c-1.1,1.8-2.1,3.7-2.5,5.3  c-18-11.8-19.8-39.6-19.9-46L65.6,57z M68.5,68.2c0-1.2,1.7-3.9,3.3-5.9c1.5,2,3.3,4.7,3.3,5.9c0,1.8-1.4,3.2-3.2,3.3  c-0.1,0-0.1,0-0.2,0C69.9,71.4,68.5,69.9,68.5,68.2z M64.7,64.2c0-3.1,4.7-9.6,7.2-12.9c2.6,3.2,7.2,9.8,7.2,12.9  c0,2-0.9,3.9-2.2,5.2c0.1-0.4,0.2-0.8,0.2-1.3c0-2.6-3.7-7.2-4.5-8.1c-0.2-0.2-0.5-0.4-0.8-0.4s-0.6,0.1-0.8,0.4  c-0.7,0.9-4.5,5.6-4.5,8.1c0,0.3,0,0.6,0.1,0.9C65.4,67.8,64.7,66.1,64.7,64.2z M63,66.6H43.1V32.6c0.1,0.6,0.3,1.2,0.4,1.8  c3.4,14,10,24.4,19.2,30C62.7,65.2,62.8,65.9,63,66.6z"/><path d="M9.3,23c1.8,3.6,5.4,5.8,9.4,5.8c5.8,0,10.5-4.7,10.5-10.5c0-4-2.2-7.6-5.8-9.4c-0.4-0.2-0.8-0.1-1.2,0.2  c-0.3,0.3-0.4,0.8-0.2,1.2c0.6,1.2,0.9,2.5,0.9,3.8c0,4.7-3.8,8.5-8.5,8.5c-1.3,0-2.6-0.3-3.8-0.9c-0.4-0.2-0.8-0.1-1.2,0.2  C9.2,22.2,9.1,22.6,9.3,23z M12.8,24.5c0.5,0.1,1.1,0.1,1.6,0.1c5.8,0,10.5-4.7,10.5-10.5c0-0.6,0-1.1-0.1-1.6  c1.5,1.6,2.4,3.7,2.4,5.9c0,4.7-3.8,8.5-8.5,8.5C16.4,26.9,14.3,26,12.8,24.5z"/></svg>