<svg xmlns="http://www.w3.org/2000/svg" xmlns:xlink="http://www.w3.org/1999/xlink" version="1.1" x="0px" y="0px" viewBox="0 0 100 125" style="enable-background:new 0 0 100 100;" xml:space="preserve"><style type="text/css">
	.st0{fill:none;stroke:#000000;stroke-width:2;stroke-linecap:round;stroke-linejoin:round;stroke-miterlimit:10;}
	.st1{fill:none;stroke:#000000;stroke-width:2;stroke-linecap:round;stroke-linejoin:round;}
	.st2{fill:none;stroke:#000000;stroke-width:2;stroke-linecap:round;stroke-linejoin:round;stroke-dasharray:2.9177,3.8902;}
	.st3{fill:none;stroke:#000000;stroke-width:2;stroke-linecap:round;stroke-linejoin:round;stroke-dasharray:2.9655,3.954;}
	.st4{fill:none;stroke:#000000;stroke-width:2;stroke-linecap:round;stroke-linejoin:round;stroke-dasharray:2.7633,3.6844;}
</style><path d="M14.8,37.1v1.7l-4,4c-0.4,0.4-0.4,1,0,1.4c0.4,0.4,1,0.4,1.4,0l2.6-2.6v1.7l-4,4c-0.4,0.4-0.4,1,0,1.4c0.4,0.4,1,0.4,1.4,0  l2.6-2.6v7.6h-3.3c-0.6,0-1,0.4-1,1s0.4,1,1,1h76.1c0.6,0,1-0.4,1-1s-0.4-1-1-1h-1.6L70.2,24.3c-0.3-0.7-1.4-0.7-1.8,0l-7.2,13.4  L46,9.1c-0.3-0.7-1.4-0.7-1.8,0l-24,44.8h-3.4v-7.6l2.6,2.6c0.2,0.2,0.5,0.3,0.7,0.3c0.3,0,0.5-0.1,0.7-0.3c0.4-0.4,0.4-1,0-1.4  l-4-4v-1.7l2.6,2.6c0.2,0.2,0.5,0.3,0.7,0.3c0.3,0,0.5-0.1,0.7-0.3c0.4-0.4,0.4-1,0-1.4l-4-4v-1.7l2.6,2.6c0.2,0.2,0.5,0.3,0.7,0.3  c0.3,0,0.5-0.1,0.7-0.3c0.4-0.4,0.4-1,0-1.4L16.5,34c0,0,0,0,0,0c-0.2-0.2-0.4-0.3-0.7-0.3s-0.5,0.1-0.7,0.3l0,0l-4.3,4.3  c-0.4,0.4-0.4,1,0,1.4c0.4,0.4,1,0.4,1.4,0L14.8,37.1z M60.2,39.7l-7.6,14.2h-7.2v-7.6l2.6,2.6c0.2,0.2,0.5,0.3,0.7,0.3  c0.3,0,0.5-0.1,0.7-0.3c0.4-0.4,0.4-1,0-1.4l-4-4v-1.7l2.6,2.6c0.2,0.2,0.5,0.3,0.7,0.3c0.3,0,0.5-0.1,0.7-0.3c0.4-0.4,0.4-1,0-1.4  l-4-4v-1.7l2.6,2.6c0.2,0.2,0.5,0.3,0.7,0.3c0.3,0,0.5-0.1,0.7-0.3c0.4-0.4,0.4-1,0-1.4L45.1,34l0,0c-0.2-0.2-0.4-0.3-0.7-0.3  s-0.5,0.1-0.7,0.3c0,0,0,0,0,0l-4.3,4.3c-0.4,0.4-0.4,1,0,1.4c0.4,0.4,1,0.4,1.4,0l2.6-2.6v1.7l-4,4c-0.4,0.4-0.4,1,0,1.4  c0.4,0.4,1,0.4,1.4,0l2.6-2.6v1.7l-4,4c-0.4,0.4-0.4,1,0,1.4c0.4,0.4,1,0.4,1.4,0l2.6-2.6v7.6H22.5l22.6-42.2l14.9,27.8  C60,39.6,60.1,39.6,60.2,39.7z M83.8,53.9H54.8l14.5-27L83.8,53.9z"/><path d="M11.6,71.4c0.6,0,1,0.4,1,1c0,1.8,1.4,3.2,3.2,3.2s3.2-1.4,3.2-3.2c0-0.6,0.4-1,1-1s1,0.4,1,1c0,1.8,1.4,3.2,3.2,3.2  s3.2-1.4,3.2-3.2c0-0.6,0.4-1,1-1s1,0.4,1,1c0,1.8,1.4,3.2,3.2,3.2s3.2-1.4,3.2-3.2c0-0.6,0.4-1,1-1s1,0.4,1,1  c0,1.8,1.4,3.2,3.2,3.2s3.2-1.4,3.2-3.2c0-0.6,0.4-1,1-1s1,0.4,1,1c0,1.8,1.4,3.2,3.2,3.2c1.8,0,3.2-1.4,3.2-3.2c0-0.6,0.4-1,1-1  s1,0.4,1,1c0,1.8,1.4,3.2,3.2,3.2s3.2-1.4,3.2-3.2c0-0.6,0.4-1,1-1s1,0.4,1,1c0,1.8,1.4,3.2,3.2,3.2s3.2-1.4,3.2-3.2  c0-0.6,0.4-1,1-1s1,0.4,1,1c0,1.8,1.4,3.2,3.2,3.2s3.2-1.4,3.2-3.2c0-0.6,0.4-1,1-1s1,0.4,1,1c0,1.8,1.4,3.2,3.2,3.2  s3.2-1.4,3.2-3.2c0-0.6,0.4-1,1-1s1,0.4,1,1c0,2.9-2.3,5.2-5.2,5.2c-1.7,0-3.3-0.9-4.2-2.2c-1,1.3-2.5,2.2-4.2,2.2s-3.3-0.9-4.2-2.2  c-1,1.3-2.5,2.2-4.2,2.2s-3.3-0.9-4.2-2.2c-1,1.3-2.5,2.2-4.2,2.2s-3.3-0.9-4.2-2.2c-1,1.3-2.5,2.2-4.2,2.2c-1.7,0-3.3-0.9-4.2-2.2  c-1,1.3-2.5,2.2-4.2,2.2c-1.7,0-3.3-0.9-4.2-2.2c-1,1.3-2.5,2.2-4.2,2.2s-3.3-0.9-4.2-2.2c-1,1.3-2.5,2.2-4.2,2.2S21,76.7,20,75.4  c-1,1.3-2.5,2.2-4.2,2.2c-2.9,0-5.2-2.3-5.2-5.2C10.6,71.8,11,71.4,11.6,71.4z"/><path d="M11.6,63c0.6,0,1,0.4,1,1c0,1.8,1.4,3.2,3.2,3.2S19,65.8,19,64c0-0.6,0.4-1,1-1s1,0.4,1,1c0,1.8,1.4,3.2,3.2,3.2  s3.2-1.4,3.2-3.2c0-0.6,0.4-1,1-1s1,0.4,1,1c0,1.8,1.4,3.2,3.2,3.2s3.2-1.4,3.2-3.2c0-0.6,0.4-1,1-1s1,0.4,1,1  c0,1.8,1.4,3.2,3.2,3.2s3.2-1.4,3.2-3.2c0-0.6,0.4-1,1-1s1,0.4,1,1c0,1.8,1.4,3.2,3.2,3.2c1.8,0,3.2-1.4,3.2-3.2c0-0.6,0.4-1,1-1  s1,0.4,1,1c0,1.8,1.4,3.2,3.2,3.2s3.2-1.4,3.2-3.2c0-0.6,0.4-1,1-1s1,0.4,1,1c0,1.8,1.4,3.2,3.2,3.2s3.2-1.4,3.2-3.2  c0-0.6,0.4-1,1-1s1,0.4,1,1c0,1.8,1.4,3.2,3.2,3.2s3.2-1.4,3.2-3.2c0-0.6,0.4-1,1-1s1,0.4,1,1c0,1.8,1.4,3.2,3.2,3.2  s3.2-1.4,3.2-3.2c0-0.6,0.4-1,1-1s1,0.4,1,1c0,2.9-2.3,5.2-5.2,5.2c-1.7,0-3.3-0.9-4.2-2.2c-1,1.3-2.5,2.2-4.2,2.2s-3.3-0.9-4.2-2.2  c-1,1.3-2.5,2.2-4.2,2.2s-3.3-0.9-4.2-2.2c-1,1.3-2.5,2.2-4.2,2.2s-3.3-0.9-4.2-2.2c-1,1.3-2.5,2.2-4.2,2.2c-1.7,0-3.3-0.9-4.2-2.2  c-1,1.3-2.5,2.2-4.2,2.2c-1.7,0-3.3-0.9-4.2-2.2c-1,1.3-2.5,2.2-4.2,2.2s-3.3-0.9-4.2-2.2c-1,1.3-2.5,2.2-4.2,2.2S21,68.4,20,67  c-1,1.3-2.5,2.2-4.2,2.2c-2.9,0-5.2-2.3-5.2-5.2C10.6,63.4,11,63,11.6,63z"/><path d="M11.6,79.3c0.6,0,1,0.4,1,1c0,1.8,1.4,3.2,3.2,3.2s3.2-1.4,3.2-3.2c0-0.6,0.4-1,1-1s1,0.4,1,1c0,1.8,1.4,3.2,3.2,3.2  s3.2-1.4,3.2-3.2c0-0.6,0.4-1,1-1s1,0.4,1,1c0,1.8,1.4,3.2,3.2,3.2s3.2-1.4,3.2-3.2c0-0.6,0.4-1,1-1s1,0.4,1,1  c0,1.8,1.4,3.2,3.2,3.2s3.2-1.4,3.2-3.2c0-0.6,0.4-1,1-1s1,0.4,1,1c0,1.8,1.4,3.2,3.2,3.2c1.8,0,3.2-1.4,3.2-3.2c0-0.6,0.4-1,1-1  s1,0.4,1,1c0,1.8,1.4,3.2,3.2,3.2s3.2-1.4,3.2-3.2c0-0.6,0.4-1,1-1s1,0.4,1,1c0,1.8,1.4,3.2,3.2,3.2s3.2-1.4,3.2-3.2  c0-0.6,0.4-1,1-1s1,0.4,1,1c0,1.8,1.4,3.2,3.2,3.2s3.2-1.4,3.2-3.2c0-0.6,0.4-1,1-1s1,0.4,1,1c0,1.8,1.4,3.2,3.2,3.2  s3.2-1.4,3.2-3.2c0-0.6,0.4-1,1-1s1,0.4,1,1c0,2.9-2.3,5.2-5.2,5.2c-1.7,0-3.3-0.9-4.2-2.2c-1,1.3-2.5,2.2-4.2,2.2s-3.3-0.9-4.2-2.2  c-1,1.3-2.5,2.2-4.2,2.2s-3.3-0.9-4.2-2.2c-1,1.3-2.5,2.2-4.2,2.2s-3.3-0.9-4.2-2.2c-1,1.3-2.5,2.2-4.2,2.2c-1.7,0-3.3-0.9-4.2-2.2  c-1,1.3-2.5,2.2-4.2,2.2c-1.7,0-3.3-0.9-4.2-2.2c-1,1.3-2.5,2.2-4.2,2.2s-3.3-0.9-4.2-2.2c-1,1.3-2.5,2.2-4.2,2.2S21,84.7,20,83.4  c-1,1.3-2.5,2.2-4.2,2.2c-2.9,0-5.2-2.3-5.2-5.2C10.6,79.8,11,79.3,11.6,79.3z"/></svg>